# xmcd
# Copyright (C) 1995-1998 Ti Kan
#
# Track frame offsets:
#       150
#       12735
#       26172
#       41427
#       55558
#
# Disc length: 932 seconds
#
# Revision: 0
# Processed by: cddbd v1.4PL0 Copyright (c) Steve Scherf et al.
# Submitted via: CD-Transfer v1.0
#
DISCID=3803a205
DTITLE=Loove - Loovemusic
DYEAR=2003
DGENRE=
TTITLE0=Thrill Me
TTITLE1=Live
TTITLE2=The Web
TTITLE3=All My Life
TTITLE4=Your Angels
EXTD=
EXTT0=
EXTT1=
EXTT2=
EXTT3=
EXTT4=
PLAYORDER=
